<svg width="17" height="17" viewBox="0 0 17 17" fill="none" xmlns="http://www.w3.org/2000/svg">
<path d="M15.2631 11.2031C15.64 10.2932 15.834 9.31792 15.834 8.33301C15.834 6.34388 15.0438 4.43623 13.6373 3.02971C12.2308 1.62318 10.3231 0.833008 8.33398 0.833008C6.34486 0.833008 4.43721 1.62318 3.03068 3.02971C1.62416 4.43623 0.833984 6.34388 0.833984 8.33301C0.833984 9.31792 1.02798 10.2932 1.40489 11.2031C1.7818 12.1131 2.33424 12.9399 3.03068 13.6363C3.72712 14.3327 4.55392 14.8852 5.46386 15.2621C6.3738 15.639 7.34907 15.833 8.33398 15.833C9.3189 15.833 10.2942 15.639 11.2041 15.2621C12.1141 14.8852 12.9408 14.3327 13.6373 13.6363C14.3337 12.9399 14.8862 12.1131 15.2631 11.2031Z" fill="white"/>
<path d="M9.16732 11.6663H8.33398V8.33301H7.50065M8.33398 4.99967H8.34232M15.834 8.33301C15.834 9.31792 15.64 10.2932 15.2631 11.2031C14.8862 12.1131 14.3337 12.9399 13.6373 13.6363C12.9408 14.3327 12.1141 14.8852 11.2041 15.2621C10.2942 15.639 9.3189 15.833 8.33398 15.833C7.34907 15.833 6.3738 15.639 5.46386 15.2621C4.55392 14.8852 3.72712 14.3327 3.03068 13.6363C2.33424 12.9399 1.7818 12.1131 1.40489 11.2031C1.02798 10.2932 0.833984 9.31792 0.833984 8.33301C0.833984 6.34388 1.62416 4.43623 3.03068 3.02971C4.43721 1.62318 6.34486 0.833008 8.33398 0.833008C10.3231 0.833008 12.2308 1.62318 13.6373 3.02971C15.0438 4.43623 15.834 6.34388 15.834 8.33301Z" stroke="#0F172A" stroke-width="1.66667" stroke-linecap="round" stroke-linejoin="round"/>
</svg>
