<?xml version="1.0" encoding="utf-8"?>
<!-- Generator: Adobe Illustrator 25.0.0, SVG Export Plug-In . SVG Version: 6.00 Build 0)  -->
<svg version="1.1" id="Layer_1" xmlns="http://www.w3.org/2000/svg" xmlns:xlink="http://www.w3.org/1999/xlink" x="0px" y="0px"
	 viewBox="0 0 10 10" style="enable-background:new 0 0 10 10;" xml:space="preserve">
<style type="text/css">
	.st0{fill:none;stroke:#FFFFFF;stroke-width:0.9991;stroke-linecap:round;stroke-linejoin:round;}
</style>
<path class="st0" d="M5,3v2l1.5,1.5 M9.5,5c0,0.6-0.1,1.2-0.3,1.7c-0.2,0.5-0.6,1-1,1.5c-0.4,0.4-0.9,0.7-1.5,1
	C6.2,9.4,5.6,9.5,5,9.5c-0.6,0-1.2-0.1-1.7-0.3c-0.5-0.2-1-0.6-1.5-1c-0.4-0.4-0.7-0.9-1-1.5C0.6,6.2,0.5,5.6,0.5,5
	c0-1.2,0.5-2.3,1.3-3.2C2.7,1,3.8,0.5,5,0.5c1.2,0,2.3,0.5,3.2,1.3C9,2.7,9.5,3.8,9.5,5z"/>
</svg>
