<svg width="171" height="88" viewBox="0 0 171 88" fill="none" xmlns="http://www.w3.org/2000/svg">
<path fill-rule="evenodd" clip-rule="evenodd" d="M14.6022 80.3892C14.6022 82.2443 14.4101 83.1719 13.8577 83.9092C12.9211 84.8368 11.9844 85.027 9.91896 85.027L4.10688 84.8368C3.91475 84.8368 3.91475 85.027 3.72261 85.027C3.72261 85.027 3.72261 85.2173 3.72261 85.4076V88H0V76.1081H9.91896C11.9844 76.1081 12.9211 76.1081 13.6656 76.8454C14.4101 77.7968 14.6022 78.3438 14.6022 80.3892ZM9.75084 82.0541C10.1351 82.0541 10.4954 82.0541 10.8796 81.6735C11.0718 81.293 11.2639 80.9362 11.2639 80.3654C11.2639 79.9849 11.2639 79.6281 10.8796 79.2476C10.3272 78.867 10.1351 78.867 9.75084 78.867H4.1309C3.93876 78.867 3.93876 78.867 3.93876 78.867C3.74663 79.0573 3.74663 79.0573 3.74663 79.2476V81.6497C3.74663 81.84 3.74663 81.84 3.93876 82.0303C3.93876 82.0303 3.93876 82.0303 4.1309 82.0303H9.75084V82.0541Z" fill="#E32728"/>
<path fill-rule="evenodd" clip-rule="evenodd" d="M18.3489 87.0724C17.6044 86.3351 17.2201 85.5978 17.2201 84.48V76.1081H20.7746V83.7189C20.7746 85.1935 23.7767 85.1935 25.0736 85.1935C26.2024 85.1935 28.8202 85.3838 28.8202 83.7189V76.1081H32.5669V84.4562C32.5669 85.5741 32.1826 86.1211 31.6302 86.8584C30.5254 88.1665 26.9709 88 25.0976 88C23.0322 88 19.2855 88.1665 18.3489 87.0724Z" fill="#E32728"/>
<path fill-rule="evenodd" clip-rule="evenodd" d="M49.2586 76.8692C49.811 77.6065 50.0031 78.1773 50.0031 79.1049C50.0031 79.8422 49.811 80.7697 49.6188 81.1503C49.0664 81.8876 48.2979 81.8876 48.2979 82.0778C48.2979 82.2681 49.2346 82.2681 49.6188 82.6249C50.1712 83.3622 50.3633 83.933 50.3633 84.6703C50.3633 85.7881 50.1712 86.7157 49.4267 87.453C48.7062 88 47.001 88 45.7041 88H35.0406V76.1081H45.536C47.001 76.1081 48.7062 76.1081 49.2586 76.8692ZM46.6407 79.8184C46.6407 79.2714 46.2565 78.7005 45.5119 78.7005H38.5711V80.9362H45.5119C46.2565 80.9362 46.6407 80.3892 46.6407 79.8184ZM47.001 84.2897C47.001 83.5524 46.6167 83.1719 45.5119 83.1719H38.5711V85.2173H45.6801C46.8329 85.2173 47.001 84.8368 47.001 84.2897Z" fill="#E32728"/>
<path fill-rule="evenodd" clip-rule="evenodd" d="M64.9896 85.2173V88H52.4288V76.1081H56.1754V85.2173H64.9896Z" fill="#E32728"/>
<path fill-rule="evenodd" clip-rule="evenodd" d="M67.4153 76.1081H71.1619V88H67.4153V76.1081Z" fill="#E32728"/>
<path fill-rule="evenodd" clip-rule="evenodd" d="M88.5982 83.5286C88.5982 83.5286 88.9824 85.9308 88.0458 86.8584C87.0851 87.8097 83.9149 88 81.273 88C78.6552 88 75.2688 87.8097 74.5243 86.8822C73.5876 85.4076 73.5876 83.7189 73.5876 82.0541C73.5876 80.1989 73.7798 78.3438 74.7164 77.0357C75.461 76.2984 78.6552 76.1081 81.273 76.1081C84.083 76.1081 86.893 76.2984 87.6375 77.0357C88.5742 78.1535 88.382 80.1989 88.382 80.1989H85.1878C85.1878 80.1989 85.1878 79.8184 84.8035 79.2714C84.2511 78.8908 82.7381 78.8908 81.249 78.8908C79.5679 78.8908 78.0548 78.8908 77.5024 79.4378C77.1181 79.9849 76.95 81.1027 76.95 82.0303C76.95 82.9578 76.95 83.8854 77.5024 84.6227C77.8867 85.1697 79.5679 85.1697 81.249 85.1697C82.7381 85.1697 84.2511 85.1697 84.8035 84.7892C85.3559 84.2422 85.1878 83.4811 85.1878 83.4811H88.5982V83.5286Z" fill="#E32728"/>
<path fill-rule="evenodd" clip-rule="evenodd" d="M112.375 76.8692C113.119 77.6065 113.119 78.1773 113.119 79.1049C113.119 79.8422 112.927 80.7697 112.735 81.1503C112.183 81.8876 111.414 81.8876 111.414 82.0778C111.414 82.2681 112.351 82.2681 112.735 82.6249C113.287 83.3622 113.48 83.933 113.48 84.6703C113.48 85.7881 113.288 86.7157 112.543 87.453C111.798 88 110.117 88 108.82 88H98.325V76.1081H108.628C110.117 76.1081 111.798 76.1081 112.375 76.8692ZM109.757 79.8184C109.757 79.2714 109.373 78.7005 108.628 78.7005H101.687V80.9362H108.628C109.373 80.9362 109.757 80.3892 109.757 79.8184ZM110.117 84.2897C110.117 83.5524 109.733 83.1719 108.628 83.1719H101.687V85.2173H108.796C109.949 85.2173 110.117 84.8368 110.117 84.2897Z" fill="#E32728"/>
<path fill-rule="evenodd" clip-rule="evenodd" d="M114.608 88L121.357 76.1081H126.785L133.149 88H129.211L127.89 85.5978H119.844L118.547 88H114.608ZM121.357 83.1719C121.357 83.3622 121.357 83.3622 121.549 83.3622H126.425C126.617 83.3622 126.617 83.3622 126.617 83.1719C126.809 83.1719 126.809 82.9816 126.809 82.9816L124.744 78.8908C124.744 78.7005 124.551 78.7005 124.551 78.7005C124.551 78.5103 124.359 78.5103 124.359 78.5103H123.807C123.807 78.5103 123.615 78.5103 123.615 78.7005C123.615 78.7005 123.615 78.7005 123.423 78.8908L121.357 82.7914C121.357 82.9816 121.165 82.9816 121.357 83.1719Z" fill="#E32728"/>
<path fill-rule="evenodd" clip-rule="evenodd" d="M139.538 79.4616C139.346 79.0811 139.346 79.0811 138.986 79.0811C138.601 79.0811 138.601 79.0811 138.601 79.4616V88H135.239V76.1081H141.411L147.415 84.6465C147.608 85.027 147.8 85.027 148.16 85.027C148.352 85.027 148.352 85.027 148.352 84.6465V76.1081H151.714V88H145.542L139.538 79.4616Z" fill="#E32728"/>
<path fill-rule="evenodd" clip-rule="evenodd" d="M158.247 83.7189V88H154.693V76.1081H158.247V80.3892C158.439 80.5795 158.631 80.5795 158.631 80.5795H160.505L165.188 76.1081H170.424L163.483 81.8638L171 88H165.764L160.337 83.3622H158.655C158.463 83.3622 158.463 83.3622 158.271 83.3622C158.247 83.5286 158.247 83.5286 158.247 83.7189Z" fill="#E32728"/>
<path fill-rule="evenodd" clip-rule="evenodd" d="M111.006 14.4843L96.1395 0H74.5723L59.4657 14.7222V29.8962L61.8674 32.0368L59.4657 34.1773V49.3514L74.3322 63.8357H96.3796L111.006 49.5892V33.9395L108.844 32.0368L111.006 30.1341V14.4843ZM85.3559 59.3168L67.6315 41.7643L69.5528 39.8616L74.3562 44.3805H96.4037L101.207 39.6238L103.369 41.7643L85.3559 59.3168ZM77.4544 32.0368L85.3559 24.2119L93.4976 32.0368L85.3559 39.8616L77.4544 32.0368ZM101.183 24.2119L96.1395 19.4551H74.5723L69.5288 24.4497L67.6074 22.3092L85.3559 4.75676L103.321 22.3092L101.183 24.2119Z" fill="#E32728"/>
</svg>
